<svg xmlns="http://www.w3.org/2000/svg" width="382.464" height="72" viewBox="0 0 101.194 19.05"><path style="font-style:normal;font-variant:normal;font-weight:400;font-stretch:normal;font-size:25.39999962px;line-height:1.25;font-family:'Bungee Inline';-inkscape-font-specification:'Bungee Inline';letter-spacing:0;word-spacing:0;fill:#000;fill-opacity:1;stroke:none;stroke-width:.26458332" d="M63.314 116.404q-.127-.127-.203-.178-.077-.051-.178-.051-.102 0-.203.076-.102.076-.102.229v13.436h.254V116.48q.025-.026.05-.026.026 0 .052.026.05.025.076.05l9.6 10.77v2.616h.255V116.2h-.254v10.72zm1.371 15.798h-3.81q-.482 0-.71-.203-.204-.228-.204-.711v-16.46q0-.482.203-.685.229-.229.711-.229h2.642q.483 0 .813.153.355.152.686.533l4.927 5.639v-5.41q0-.483.203-.686.229-.229.712-.229h3.81q.482 0 .685.229.229.203.229.686v16.459q0 .483-.229.711-.203.203-.685.203h-3.81q-.483 0-.712-.203-.203-.228-.203-.711v-3.124l-4.343-5.258v8.382q0 .483-.229.711-.203.203-.686.203zM94.581 127.402q0 1.168-.356 2.133-.33.94-1.219 1.626-.863.66-2.413 1.041-1.524.381-3.886.381t-3.912-.38q-1.549-.382-2.438-1.042-.864-.686-1.22-1.626-.33-.965-.33-2.133v-8.662q0-1.168.33-2.108.356-.965 1.22-1.65.89-.687 2.438-1.068 1.55-.38 3.912-.38t3.886.38q1.55.381 2.413 1.067.89.686 1.22 1.651.355.94.355 2.108zm-2.769-.584v-7.493q0-1.524-1.092-2.464-1.092-.965-4.064-.965t-4.038.965q-1.067.94-1.067 2.464v7.493q0 1.524 1.067 2.489 1.066.94 4.038.94 2.972 0 4.064-.94 1.092-.965 1.092-2.49zm-10.007 0v-7.493q0-1.423 1.016-2.286 1.016-.89 3.835-.89 2.82 0 3.861.89 1.041.863 1.041 2.286v7.493q0 1.422-1.04 2.311-1.042.864-3.862.864-2.82 0-3.835-.864-1.016-.889-1.016-2.311zm2.768-.33q0 .507.381.863.381.33 1.753.33 1.372 0 1.753-.33.38-.356.38-.864v-6.832q0-.483-.38-.813-.381-.356-1.753-.356-1.372 0-1.753.356-.38.33-.38.813zM111.904 127.402q0 1.168-.33 2.133-.33.94-1.169 1.626-.813.66-2.26 1.041-1.448.381-3.683.381-2.21 0-3.658-.38-1.422-.382-2.26-1.042-.813-.686-1.144-1.626-.304-.965-.304-2.133v-4.115q0-.483.203-.686.228-.228.711-.228h3.683q.483 0 .686.228.228.203.228.686v3.099q0 .508.305.863.33.33 1.499.33 1.092 0 1.371-.33.305-.355.305-.863v-11.557q0-.483.203-.686.23-.229.712-.229h3.987q.483 0 .686.229.229.203.229.686zm-3.048-11.202v10.592q0 1.423-.915 2.312-.914.863-3.429.863-2.616 0-3.58-.863-.94-.864-.94-2.312v-2.006h-.255v2.006q0 .762.203 1.397.23.635.762 1.092.534.432 1.448.686.94.254 2.362.254 2.693 0 3.633-.965.965-.965.965-2.464V116.2zM128.21 132.202h-12.598q-.482 0-.71-.203-.204-.228-.204-.711v-3.404q0-.482.152-.838.153-.38.483-.736l6.172-7.493h-5.436q-.482 0-.71-.204-.204-.228-.204-.71v-3.074q0-.483.203-.686.229-.229.711-.229h11.684q.483 0 .686.229.229.203.229.686v3.784q0 .508-.153.89-.152.355-.482.71l-5.893 7.138h6.07q.483 0 .686.229.23.203.23.685v3.023q0 .483-.23.711-.203.203-.685.203zm-2.666-13.817q.177-.229.304-.432.127-.229.127-.508v-.406q0-.432-.203-.635-.178-.204-.584-.204h-7.747v.254h7.747q.203 0 .356.127.177.102.177.458v.355q0 .254-.101.407-.076.152-.254.38l-7.442 9.551q-.178.229-.305.457-.127.203-.127.483v.406q0 .432.178.635.203.203.61.203h8.56v-.254h-8.56q-.204 0-.382-.101-.152-.127-.152-.483v-.355q0-.254.076-.407.102-.152.28-.38zM132.554 132.202q-.483 0-.711-.203-.203-.228-.203-.711v-3.023q0-.482.203-.685.228-.229.711-.229h2.515v-8.534h-2.515q-.483 0-.711-.204-.203-.228-.203-.71v-3.074q0-.483.203-.686.228-.229.711-.229h10.82q.483 0 .686.229.229.203.229.686v3.073q0 .483-.229.711-.203.204-.686.204h-2.463v8.534h2.463q.483 0 .686.229.229.203.229.685v3.023q0 .483-.229.711-.203.203-.686.203zm9.449-2.286v-.254h-3.886v-13.208h3.886v-.254h-8.077v.254h3.937v13.208h-3.937v.254zM155.897 132.202h-8.027q-.482 0-.71-.203-.204-.228-.204-.711v-2.972q0-.482.203-.686.229-.228.711-.228h6.833q.33 0 .482-.203.178-.229.178-.534 0-.432-.178-.635-.152-.203-.482-.228l-3.81-.534q-1.778-.254-2.87-1.168-1.067-.915-1.067-3.048v-2.667q0-2.16 1.397-3.302 1.397-1.169 3.86-1.169h7.113q.482 0 .685.229.23.203.23.686v3.022q0 .483-.23.712-.203.203-.685.203h-5.919q-.33 0-.508.228-.177.204-.177.534 0 .33.177.559.178.228.508.254l3.785.508q1.778.254 2.87 1.168 1.092.914 1.092 3.048v2.667q0 2.159-1.422 3.327-1.397 1.143-3.835 1.143zm2.057-16.002h-5.639q-1.168 0-1.88.66-.71.636-.71 1.652v2.083q0 1.041.406 1.447.432.381 1.092.508l5.36 1.093q.71.152 1.117.61.432.431.432 1.625v1.473q0 1.016-.711 1.676-.686.635-1.855.635h-6.324v.254h6.324q1.296 0 2.058-.71.762-.737.762-1.855v-1.473q0-1.321-.508-1.829-.483-.508-1.245-.66l-5.36-1.093q-.583-.101-.939-.457-.356-.355-.356-1.244v-2.083q0-.89.635-1.473.635-.585 1.702-.585h5.64z" transform="translate(-59.96 -113.533)"/></svg>