<svg xmlns="http://www.w3.org/2000/svg" viewBox="0 0 31.75 31.75" height="120" width="120"><path d="M3.427 278.341h3.866c.239 0 .471-.077.663-.22l6.186-4.64c.736-.553.884-.478.884.441v14.362c0 .923-.145.996-.884.442l-6.186-4.64a1.105 1.105 0 0 0-.663-.22H3.427a1.103 1.103 0 0 1-1.106-1.102v-3.322c0-.607.495-1.1 1.106-1.1zm-3.315 4.423a3.313 3.313 0 0 0 3.315 3.31l3.495-.001 5.895 4.42c2.196 1.648 4.419.533 4.419-2.209v-14.362c0-2.74-2.227-3.854-4.42-2.21l-5.868 4.42h-3.52a3.313 3.313 0 0 0-3.316 3.31zm27.02-9.994a1.105 1.105 0 0 0-1.563-1.563l-5.247 5.248a1.105 1.105 0 1 0 1.562 1.563zm-1.563 18.229a1.105 1.105 0 0 0 1.563-1.563l-5.248-5.247a1.105 1.105 0 1 0-1.562 1.562zm5.668-13.314a1.105 1.105 0 0 0-.935-2.002l-4.143 1.933a1.105 1.105 0 1 0 .935 2.002zm-.935 8.838a1.104 1.104 0 1 0 .935-2.002l-4.143-1.934a1.105 1.105 0 0 0-.934 2.003z" style="fill-rule:evenodd;stroke-width:.08285868" transform="translate(0 -265.25)"/></svg>